<svg xmlns="http://www.w3.org/2000/svg" width="34" height="32" fill="none" viewBox="0 0 34 32">
    <path fill="#fff"
        d="M2.126 26.694c-.66 0-1.206-.547-1.206-1.206v-9.166C.84 11.964 2.463 7.847 5.487 4.76 8.51 1.688 12.562 0 16.92 0c8.909 0 16.16 7.252 16.16 16.161v9.166c0 .66-.547 1.206-1.206 1.206-.66 0-1.206-.547-1.206-1.206v-9.166c0-7.574-6.16-13.749-13.75-13.749-3.714 0-7.155 1.431-9.712 4.036-2.573 2.621-3.94 6.111-3.875 9.842v9.182c0 .675-.531 1.222-1.206 1.222Z"
        opacity=".4" />
    <path fill="#fff"
        d="M7.255 16.724h-.209A6.135 6.135 0 0 0 .92 22.85v3.023A6.135 6.135 0 0 0 7.046 32h.21a6.135 6.135 0 0 0 6.126-6.127V22.85a6.135 6.135 0 0 0-6.127-6.126Zm19.699 0h-.209a6.135 6.135 0 0 0-6.127 6.126v3.023A6.135 6.135 0 0 0 26.745 32h.21a6.135 6.135 0 0 0 6.126-6.127V22.85a6.135 6.135 0 0 0-6.127-6.126Z" />
</svg>