<svg xmlns="http://www.w3.org/2000/svg" width="33" height="33" fill="none" viewBox="0 0 33 33">
    <path fill="#fff"
        d="M16.616 25.78a4.722 4.722 0 1 0 0-9.443 4.722 4.722 0 0 0 0 9.444Zm0-14.165a2.361 2.361 0 1 0 0-4.722 2.361 2.361 0 0 0 0 4.722Z" />
    <path fill="#fff"
        d="M21.337 0h-9.443C6.873 0 5 1.873 5 6.894V25.78c0 5.02 1.873 6.894 6.894 6.894h9.443c5.021 0 6.894-1.873 6.894-6.894V6.894C28.231 1.873 26.358 0 21.337 0Zm-4.721 6.894a2.358 2.358 0 0 1 2.36 2.36 2.358 2.358 0 0 1-2.36 2.362 2.358 2.358 0 0 1-2.361-2.361 2.358 2.358 0 0 1 2.36-2.361Zm0 18.887a4.716 4.716 0 0 1-4.722-4.722 4.716 4.716 0 0 1 4.722-4.722 4.715 4.715 0 0 1 4.721 4.722 4.715 4.715 0 0 1-4.721 4.722Z"
        opacity=".4" />
</svg>