<svg width="48" height="48" viewBox="0 0 48 48" fill="none" xmlns="http://www.w3.org/2000/svg">
<path d="M25.5899 25.6203C25.1349 26.0596 24.5256 26.3028 23.8932 26.2973C23.2607 26.2918 22.6557 26.0381 22.2085 25.5909C21.7612 25.1436 21.5075 24.5386 21.502 23.9062C21.4965 23.2737 21.7397 22.6644 22.1791 22.2094L36.6521 7.73641C36.8746 7.50602 37.1408 7.32226 37.4351 7.19584C37.7294 7.06942 38.0459 7.00287 38.3662 7.00009C38.6865 6.99731 39.0041 7.05834 39.3006 7.17963C39.597 7.30091 39.8663 7.48002 40.0928 7.70651C40.3193 7.93299 40.4984 8.20232 40.6197 8.49876C40.741 8.79521 40.802 9.11285 40.7992 9.43313C40.7965 9.75342 40.7299 10.0699 40.6035 10.3642C40.4771 10.6585 40.2933 10.9247 40.0629 11.1472L25.5899 25.6203Z" fill="white"/>
<path d="M35.9461 35.9757V27.5331C35.9461 26.8933 36.2002 26.2798 36.6526 25.8274C37.1049 25.3751 37.7185 25.1209 38.3582 25.1209C38.998 25.1209 39.6115 25.3751 40.0639 25.8274C40.5163 26.2798 40.7704 26.8933 40.7704 27.5331V38.3879C40.7704 39.0276 40.5163 39.6412 40.0639 40.0935C39.6115 40.5459 38.998 40.8 38.3582 40.8H9.41217C8.77242 40.8 8.15888 40.5459 7.70651 40.0935C7.25414 39.6412 7 39.0276 7 38.3879V9.4418C7 8.80206 7.25414 8.18851 7.70651 7.73614C8.15888 7.28377 8.77242 7.02963 9.41217 7.02963H20.2669C20.9067 7.02963 21.5202 7.28377 21.9726 7.73614C22.425 8.18851 22.6791 8.80206 22.6791 9.4418C22.6791 10.0816 22.425 10.6951 21.9726 11.1475C21.5202 11.5998 20.9067 11.854 20.2669 11.854H11.8243V35.9757H35.9461ZM40.7704 19.0905C40.7704 19.7302 40.5163 20.3438 40.0639 20.7962C39.6115 21.2485 38.998 21.5027 38.3582 21.5027C37.7185 21.5027 37.1049 21.2485 36.6526 20.7962C36.2002 20.3438 35.9461 19.7302 35.9461 19.0905V9.4418C35.9461 8.80206 36.2002 8.18851 36.6526 7.73614C37.1049 7.28377 37.7185 7.02963 38.3582 7.02963C38.998 7.02963 39.6115 7.28377 40.0639 7.73614C40.5163 8.18851 40.7704 8.80206 40.7704 9.4418V19.0905Z" fill="white"/>
<path d="M28.709 11.854C28.0693 11.854 27.4558 11.5998 27.0034 11.1475C26.551 10.6951 26.2969 10.0816 26.2969 9.4418C26.2969 8.80206 26.551 8.18851 27.0034 7.73614C27.4558 7.28377 28.0693 7.02963 28.709 7.02963H38.3577C38.9975 7.02963 39.611 7.28377 40.0634 7.73614C40.5158 8.18851 40.7699 8.80206 40.7699 9.4418C40.7699 10.0816 40.5158 10.6951 40.0634 11.1475C39.611 11.5998 38.9975 11.854 38.3577 11.854H28.709Z" fill="white"/>
</svg>
