<svg width="48" height="48" viewBox="0 0 48 48" fill="none" xmlns="http://www.w3.org/2000/svg">
<path d="M16.9588 11.8582C15.0867 13.8123 14.0349 16.4627 14.0349 19.2262V33.0652C14.0349 33.2326 13.9929 33.3972 13.9128 33.5441L13.7502 33.8422L11.7433 37.5162C11.6971 37.6007 11.7583 37.7039 11.8546 37.7039H24.3431C26.0852 37.7039 27.496 39.1187 27.4911 40.8608C27.4862 42.596 26.0782 44 24.3431 44H6.13736C4.29234 44 3.13453 42.0081 4.04768 40.4049L7.98842 33.5008C8.0746 33.3498 8.11993 33.179 8.11993 33.0051V19.8608C8.11993 15.6542 9.7927 11.62 12.7703 8.64551C15.7478 5.67104 19.7862 4 23.9971 4C26.0823 3.99975 28.1471 4.40981 30.0736 5.20678C32.0002 6.00374 33.7507 7.172 35.2252 8.64483C36.6998 10.1177 37.8694 11.8662 38.6675 13.7907C39.4655 15.7151 39.8762 17.7777 39.8762 19.8608V33.0051C39.8762 33.179 39.9215 33.3498 40.0077 33.5008L43.9485 40.4049L44.5514 41.4614C45.1971 42.5929 44.38 44 43.0772 44H37.1481C35.4094 44 34 42.5906 34 40.8519V40.0661C34 38.7615 35.0576 37.7039 36.3622 37.7039C36.3768 37.7039 36.386 37.6883 36.3791 37.6755L34.2852 33.8422L34.1226 33.5441C34.0424 33.3972 34.0005 33.2326 34.0005 33.0652V19.2262C34.0005 16.4627 32.9487 13.8123 31.0766 11.8582C29.2044 9.9041 26.6653 8.80629 24.0177 8.80629C21.3701 8.80629 18.831 9.9041 16.9588 11.8582Z" fill="white"/>
</svg>
