<svg width="48" height="48" viewBox="0 0 48 48" fill="none" xmlns="http://www.w3.org/2000/svg">
<path d="M23.9973 4C24.7346 3.99991 25.4695 4.05185 26.1965 4.15332C25.0032 5.48255 24.0896 7.06814 23.551 8.81836C21.0734 8.93942 18.7209 10.0195 16.9592 11.8584C15.0871 13.8125 14.0354 16.4631 14.0354 19.2266V33.0654C14.0353 33.2326 13.9933 33.3971 13.9133 33.5439L13.7502 33.8418L11.7434 37.5166C11.6977 37.6009 11.7588 37.7038 11.8547 37.7041H24.3439C26.0857 37.7043 27.4961 39.1186 27.4914 40.8604C27.4865 42.5954 26.0789 43.9998 24.3439 44H6.13789C4.29299 44 3.13524 42.0084 4.04805 40.4053L7.98848 33.501C8.07466 33.35 8.12031 33.1787 8.12031 33.0049V19.8604C8.12042 15.654 9.79325 11.6199 12.7707 8.64551C15.7482 5.67111 19.7865 4.00008 23.9973 4ZM39.8771 33.0049C39.8771 33.1787 39.9218 33.35 40.008 33.501L43.9484 40.4053L44.552 41.4609C45.1977 42.5925 44.3802 44 43.0773 44H37.1486C35.41 44 34.0002 42.5902 34.0002 40.8516V40.0664C34.0002 38.7618 35.058 37.7042 36.3625 37.7041C36.3771 37.7041 36.386 37.6886 36.3791 37.6758L34.2854 33.8418L34.1232 33.5439C34.0432 33.3971 34.0012 33.2327 34.0012 33.0654V24.9092C34.4927 24.9679 34.9928 25 35.5002 25C37.0404 25 38.5147 24.7194 39.8771 24.21V33.0049Z" fill="white"/>
<circle cx="35.5" cy="12.5" r="8.5" fill="white"/>
</svg>
