<svg width="48" height="48" viewBox="0 0 48 48" fill="none" xmlns="http://www.w3.org/2000/svg">
<path d="M23.9971 4C26.0823 3.99975 28.1477 4.41007 30.0742 5.20703C32.0006 6.00398 33.7512 7.17184 35.2256 8.64453C36.7001 10.1174 37.8699 11.8666 38.668 13.791C39.4658 15.7152 39.8769 17.7776 39.877 19.8604V23.0469C38.7073 22.9977 37.4044 23 36 23C35.3077 23 34.6401 22.9996 34.001 23.0049V19.2266C34.001 16.4632 32.9491 13.8125 31.0771 11.8584C29.205 9.90429 26.6652 8.80664 24.0176 8.80664C21.3701 8.80674 18.831 9.90438 16.959 11.8584C15.0869 13.8125 14.0352 16.4631 14.0352 19.2266V33.0654C14.0351 33.2326 13.9931 33.3971 13.9131 33.5439L13.75 33.8418L11.7432 37.5166C11.6975 37.6009 11.7586 37.7038 11.8545 37.7041H23.0029C23.0118 39.2813 23.0496 40.693 23.21 41.8857C23.3059 42.5986 23.4559 43.3107 23.6982 44H6.1377C4.29279 44 3.13504 42.0084 4.04785 40.4053L7.98828 33.501C8.07447 33.35 8.12012 33.1787 8.12012 33.0049V19.8604C8.12023 15.654 9.79306 11.6199 12.7705 8.64551C15.748 5.67111 19.7863 4.00008 23.9971 4Z" fill="white"/>
<path fill-rule="evenodd" clip-rule="evenodd" d="M36 46C31.285 46 28.93 46 27.465 44.535C26 43.07 26 40.715 26 36C26 31.285 26 28.93 27.465 27.465C28.93 26 31.285 26 36 26C40.715 26 43.07 26 44.535 27.465C46 28.93 46 31.285 46 36C46 40.715 46 43.07 44.535 44.535C43.07 46 40.715 46 36 46ZM32.735 30.375C32.58 30.2202 32.3961 30.0974 32.1937 30.0137C31.9913 29.93 31.7744 29.887 31.5554 29.8871C31.3363 29.8872 31.1195 29.9305 30.9172 30.0144C30.7148 30.0983 30.531 30.2213 30.3762 30.3762C30.2215 30.5312 30.0987 30.7151 30.015 30.9175C29.9313 31.1199 29.8882 31.3369 29.8884 31.5559C29.8885 31.7749 29.9317 31.9918 30.0157 32.1941C30.0996 32.3964 30.2225 32.5802 30.3775 32.735L33.6425 36L30.3775 39.265C30.0774 39.5801 29.9123 40.0002 29.9176 40.4353C29.9229 40.8705 30.0982 41.2864 30.4059 41.5941C30.7136 41.9018 31.1295 42.0771 31.5647 42.0824C31.9998 42.0877 32.4199 41.9226 32.735 41.6225L36 38.3575L39.265 41.6225C39.5801 41.9226 40.0002 42.0877 40.4353 42.0824C40.8705 42.0771 41.2864 41.9018 41.5941 41.5941C41.9018 41.2864 42.0771 40.8705 42.0824 40.4353C42.0877 40.0002 41.9226 39.5801 41.6225 39.265L38.3575 36L41.6225 32.735C41.9226 32.4199 42.0877 31.9998 42.0824 31.5647C42.0771 31.1295 41.9018 30.7136 41.5941 30.4059C41.2864 30.0982 40.8705 29.9229 40.4353 29.9176C40.0002 29.9123 39.5801 30.0774 39.265 30.3775L36 33.6425L32.735 30.375Z" fill="white"/>
</svg>
