<svg width="48" height="48" viewBox="0 0 48 48" fill="none" xmlns="http://www.w3.org/2000/svg">
<path fill-rule="evenodd" clip-rule="evenodd" d="M26.8571 6.85714C26.8571 6.09938 26.5561 5.37266 26.0203 4.83684C25.4845 4.30102 24.7578 4 24 4C23.2422 4 22.5155 4.30102 21.9797 4.83684C21.4439 5.37266 21.1429 6.09938 21.1429 6.85714V25.9048C21.1429 26.6625 21.4439 27.3892 21.9797 27.9251C22.5155 28.4609 23.2422 28.7619 24 28.7619C24.7578 28.7619 25.4845 28.4609 26.0203 27.9251C26.5561 27.3892 26.8571 26.6625 26.8571 25.9048V6.85714ZM16.1029 12.0952C16.4155 11.8875 16.6842 11.6202 16.8936 11.3086C17.103 10.9971 17.2489 10.6473 17.3231 10.2793C17.3973 9.91131 17.3983 9.53232 17.326 9.16395C17.2538 8.79558 17.1096 8.44505 16.9019 8.13238C16.6942 7.81971 16.4269 7.55102 16.1153 7.34165C15.8037 7.13227 15.454 6.98632 15.086 6.91212C14.718 6.83792 14.339 6.83693 13.9706 6.9092C13.6022 6.98148 13.2517 7.12559 12.9391 7.33333C10.1885 9.1571 7.9326 11.6338 6.37275 14.5421C4.8129 17.4504 3.99771 20.6998 4 24C4 35.0457 12.9543 44 24 44C35.0457 44 44 35.0457 44 24C44 17.04 40.4438 10.9143 35.061 7.33333C34.4295 6.91404 33.6573 6.76277 32.9143 6.9128C32.1713 7.06283 31.5183 7.50187 31.0991 8.13333C30.6798 8.7648 30.5285 9.53697 30.6785 10.28C30.8285 11.023 31.2676 11.6759 31.8991 12.0952C34.4564 13.7917 36.3994 16.2666 37.4405 19.1535C38.4816 22.0403 38.5653 25.1857 37.6794 28.1239C36.7934 31.0621 34.9848 33.6369 32.5214 35.467C30.058 37.2972 27.0708 38.2854 24.0019 38.2854C20.9331 38.2854 17.9458 37.2972 15.4824 35.467C13.019 33.6369 11.2104 31.0621 10.3245 28.1239C9.4385 25.1857 9.52226 22.0403 10.5633 19.1535C11.6044 16.2666 13.5455 13.7917 16.1029 12.0952Z" fill="white"/>
</svg>
