<svg width="48" height="48" viewBox="0 0 48 48" fill="none" xmlns="http://www.w3.org/2000/svg">
<path d="M38.6667 44H8.33345C7.1418 44 6.12203 43.5761 5.27415 42.7282C4.42627 41.8803 4.0016 40.8598 4.00016 39.6667L4 9.33333C4 8.14167 4.42466 7.12189 5.27399 6.274C6.12331 5.42611 7.14308 5.00144 8.3333 5H38.6666C39.8582 5 40.8787 5.42467 41.728 6.274C42.5774 7.12333 43.0013 8.14311 42.9998 9.33333L43 39.6667C43 40.8583 42.5761 41.8788 41.7282 42.7282C40.8803 43.5775 39.8598 44.0014 38.6667 44ZM26.5613 15.6397C27.4092 14.7869 27.8331 13.7622 27.8331 12.5657C27.8331 11.3692 27.4092 10.3453 26.5613 9.49399C25.7134 8.64266 24.6929 8.21627 23.4998 8.21482C22.3067 8.21337 21.287 8.63976 20.4405 9.49399C19.5941 10.3482 19.1694 11.3721 19.1665 12.5657C19.1637 13.7593 19.5883 14.784 20.4405 15.6397C21.2928 16.4954 22.3125 16.921 23.4998 16.9167C24.6872 16.9123 25.7076 16.4866 26.5613 15.6397ZM31.1508 37.5677C33.2723 35.4462 34.3331 32.8958 34.3331 29.9167C34.3331 26.9375 33.2723 24.3872 31.1508 22.2656C29.0293 20.1441 26.479 19.0833 23.4998 19.0833C20.5207 19.0833 17.9704 20.1441 15.8489 22.2656C13.7273 24.3872 12.6666 26.9375 12.6666 29.9167C12.6666 32.8958 13.7273 35.4462 15.8489 37.5677C17.9704 39.6892 20.5207 40.75 23.4998 40.75C26.479 40.75 29.0293 39.6892 31.1508 37.5677ZM19.6757 33.7436C18.614 32.6801 18.0832 31.4045 18.0832 29.9167C18.0832 28.4289 18.614 27.1542 19.6757 26.0925C20.7374 25.0308 22.0121 24.5 23.4998 24.5C24.9876 24.5 26.2632 25.0308 27.3267 26.0925C28.3901 27.1542 28.9201 28.4289 28.9164 29.9167C28.9128 31.4045 28.3829 32.6801 27.3267 33.7436C26.2704 34.807 24.9948 35.337 23.4998 35.3333C22.0048 35.3297 20.7301 34.7998 19.6757 33.7436Z" fill="white"/>
</svg>
