<svg width="48" height="48" viewBox="0 0 48 48" fill="none" xmlns="http://www.w3.org/2000/svg">
<path d="M17 44H8.33333C7.14167 44 6.12189 43.5761 5.274 42.7282C4.42611 41.8803 4.00144 40.8598 4 39.6667V24.5C4 21.7917 4.51494 19.2552 5.54483 16.8907C6.57472 14.5261 7.96428 12.4678 9.7135 10.7157C11.4627 8.96356 13.5211 7.57328 15.8885 6.54484C18.2559 5.51639 20.7931 5.00145 23.5 5C26.2069 4.99856 28.744 5.5135 31.1115 6.54484C33.4789 7.57617 35.5373 8.96572 37.2865 10.7135C39.0357 12.4613 40.426 14.5196 41.4573 16.8885C42.4887 19.2574 43.0029 21.7946 43 24.5V39.6667C43 40.8583 42.576 41.8788 41.7282 42.7282C40.8803 43.5775 39.8598 44.0014 38.6667 44H30V26.6667H38.6667V24.5C38.6667 20.275 37.1955 16.6913 34.2532 13.749C31.3108 10.8067 27.7264 9.33478 23.5 9.33334C19.2736 9.33189 15.6899 10.8038 12.749 13.749C9.80811 16.6942 8.33622 20.2779 8.33333 24.5V26.6667H17V44Z" fill="white"/>
</svg>
