<svg width="48" height="48" viewBox="0 0 48 48" fill="none" xmlns="http://www.w3.org/2000/svg">
<path d="M23.5 5C26.2068 4.99856 28.7439 5.51362 31.1113 6.54492C33.4788 7.57626 35.5369 8.96609 37.2861 10.7139C39.0354 12.4616 40.4257 14.5198 41.457 16.8887C42.3478 18.9347 42.8515 21.1062 42.9707 23.4033C42.6111 23.3219 42.2485 23.2588 41.8857 23.21C40.9243 23.0807 39.8205 23.0318 38.6025 23.0127C38.2929 19.4276 36.8436 16.3397 34.2529 13.749C31.3106 10.8068 27.7264 9.33445 23.5 9.33301C19.2736 9.33156 15.6899 10.8038 12.749 13.749C9.80814 16.6942 8.3359 20.2779 8.33301 24.5V26.667H17V44H8.33301C7.14166 43.9999 6.12215 43.5761 5.27441 42.7285C4.4266 41.8807 4.00152 40.86 4 39.667V24.5C4 21.7917 4.51503 19.2552 5.54492 16.8906C6.57481 14.5261 7.96466 12.4679 9.71387 10.7158C11.4631 8.96376 13.5213 7.57334 15.8887 6.54492C18.2561 5.51651 20.7932 5.00144 23.5 5Z" fill="white"/>
<path fill-rule="evenodd" clip-rule="evenodd" d="M36 46C31.285 46 28.93 46 27.465 44.535C26 43.07 26 40.715 26 36C26 31.285 26 28.93 27.465 27.465C28.93 26 31.285 26 36 26C40.715 26 43.07 26 44.535 27.465C46 28.93 46 31.285 46 36C46 40.715 46 43.07 44.535 44.535C43.07 46 40.715 46 36 46ZM32.735 30.375C32.58 30.2202 32.3961 30.0974 32.1937 30.0137C31.9913 29.93 31.7744 29.887 31.5554 29.8871C31.3363 29.8872 31.1195 29.9305 30.9172 30.0144C30.7148 30.0983 30.531 30.2213 30.3762 30.3762C30.2215 30.5312 30.0987 30.7151 30.015 30.9175C29.9313 31.1199 29.8882 31.3369 29.8884 31.5559C29.8885 31.7749 29.9317 31.9918 30.0157 32.1941C30.0996 32.3964 30.2225 32.5802 30.3775 32.735L33.6425 36L30.3775 39.265C30.0774 39.5801 29.9123 40.0002 29.9176 40.4353C29.9229 40.8705 30.0982 41.2864 30.4059 41.5941C30.7136 41.9018 31.1295 42.0771 31.5647 42.0824C31.9998 42.0877 32.4199 41.9226 32.735 41.6225L36 38.3575L39.265 41.6225C39.5801 41.9226 40.0002 42.0877 40.4353 42.0824C40.8705 42.0771 41.2864 41.9018 41.5941 41.5941C41.9018 41.2864 42.0771 40.8705 42.0824 40.4353C42.0877 40.0002 41.9226 39.5801 41.6225 39.265L38.3575 36L41.6225 32.735C41.9226 32.4199 42.0877 31.9998 42.0824 31.5647C42.0771 31.1295 41.9018 30.7136 41.5941 30.4059C41.2864 30.0982 40.8705 29.9229 40.4353 29.9176C40.0002 29.9123 39.5801 30.0774 39.265 30.3775L36 33.6425L32.735 30.375Z" fill="white"/>
</svg>
