<svg width="48" height="48" viewBox="0 0 48 48" fill="none" xmlns="http://www.w3.org/2000/svg">
<g clip-path="url(#clip0_550_11)">
<path d="M44.9793 44.1114L44.8465 44.2441C44.0158 45.0748 43.0094 45.4902 41.8273 45.4902C40.6452 45.4902 39.6378 45.0748 38.8051 44.2441L3.02072 9.93185C2.19002 9.10115 1.77518 8.09425 1.77618 6.91113C1.77719 5.72802 2.19203 4.72111 3.02072 3.89041L3.15348 3.75765C3.98418 2.92695 4.99159 2.51161 6.17571 2.51161C7.35983 2.51161 8.36623 2.92696 9.19491 3.75766L44.9793 38.0699C45.81 38.9006 46.2258 39.9075 46.2268 41.0907C46.2278 42.2738 45.812 43.2807 44.9793 44.1114Z" fill="white"/>
<path d="M9.01221 20.1152C8.70118 21.3424 8.54537 22.6371 8.54443 23.999V26.1348H15.2905L17.0874 27.8574V43.2227H8.54443C7.36965 43.2227 6.36371 42.8046 5.52783 41.9688C4.692 41.1329 4.2734 40.1264 4.27197 38.9502V23.999C4.27197 21.4734 4.72675 19.0993 5.63525 16.877L9.01221 20.1152ZM33.1118 43.2227H29.9038V40.1465L33.1118 43.2227ZM23.4956 4.77539C26.1641 4.77397 28.6656 5.28113 30.9995 6.29785C33.3334 7.31458 35.363 8.68421 37.0874 10.4072C38.8118 12.1302 40.182 14.1598 41.1987 16.4951C42.2155 18.8304 42.7221 21.3319 42.7192 23.999V31.4629L37.1616 26.1348H38.4478V23.999C38.4478 19.8339 36.9968 16.301 34.0962 13.4004C31.1956 10.4998 27.6621 9.0483 23.4956 9.04688C22.1953 9.04645 20.9566 9.18724 19.7798 9.46973L16.3257 6.15821C18.564 5.23817 20.9537 4.77677 23.4956 4.77539Z" fill="white"/>
</g>
<defs>
<clipPath id="clip0_550_11">
<rect width="48" height="48" fill="white"/>
</clipPath>
</defs>
</svg>
