<svg width="48" height="48" viewBox="0 0 48 48" fill="none" xmlns="http://www.w3.org/2000/svg">
<path d="M38.4473 4.77441C39.6218 4.77443 40.6276 5.19324 41.4648 6.03027C42.3021 6.86757 42.7202 7.87352 42.7188 9.04688V23.3496C42.442 23.2938 42.164 23.2474 41.8857 23.21C40.2781 22.9937 38.2724 23 36 23C34.5966 23 33.295 22.9978 32.126 23.0469C31.8017 22.6144 31.4394 22.1972 31.0381 21.7959C28.9466 19.7044 26.4321 18.6582 23.4951 18.6582C20.5582 18.6582 18.0436 19.7045 15.9521 21.7959C13.861 23.8872 12.8155 26.4013 12.8154 29.3379C12.8154 32.2747 13.8608 34.7894 15.9521 36.8809C17.938 38.8667 20.3056 39.9076 23.0537 40.0078C23.0846 40.681 23.1324 41.309 23.21 41.8857C23.2701 42.3331 23.3521 42.7802 23.4639 43.2217H8.54395C7.36916 43.2217 6.36322 42.8036 5.52734 41.9678C4.69173 41.132 4.27292 40.1262 4.27148 38.9502V9.04688C4.27148 7.87209 4.69004 6.86615 5.52734 6.03027C6.36452 5.19457 7.36985 4.77595 8.54297 4.77441H38.4473ZM23.4951 23.998C24.4598 23.998 25.3335 24.2259 26.1172 24.6787C25.8506 24.8749 25.5921 25.0954 25.3438 25.3438C23.9614 26.7261 23.4379 28.4196 23.21 30.1143C23.0375 31.3968 23.0064 32.9327 23.001 34.6553C21.7387 34.5475 20.6468 34.034 19.7256 33.1113C18.679 32.0629 18.1553 30.8046 18.1553 29.3379C18.1554 27.8714 18.6791 26.6149 19.7256 25.5684C20.7722 24.5219 22.0285 23.9981 23.4951 23.998ZM23.4951 7.94434C22.319 7.94293 21.3139 8.363 20.4795 9.20508C19.645 10.0472 19.2265 11.0567 19.2236 12.2334C19.2208 13.41 19.6394 14.4202 20.4795 15.2637C21.3196 16.1071 22.3247 16.5267 23.4951 16.5225C24.6656 16.5182 25.6721 16.0987 26.5137 15.2637C27.3494 14.423 27.7675 13.4128 27.7676 12.2334C27.7676 11.054 27.3494 10.0443 26.5137 9.20508C25.6778 8.36581 24.6713 7.94577 23.4951 7.94434Z" fill="white"/>
<path fill-rule="evenodd" clip-rule="evenodd" d="M36 46C31.285 46 28.93 46 27.465 44.535C26 43.07 26 40.715 26 36C26 31.285 26 28.93 27.465 27.465C28.93 26 31.285 26 36 26C40.715 26 43.07 26 44.535 27.465C46 28.93 46 31.285 46 36C46 40.715 46 43.07 44.535 44.535C43.07 46 40.715 46 36 46ZM32.735 30.375C32.58 30.2202 32.3961 30.0974 32.1937 30.0137C31.9913 29.93 31.7744 29.887 31.5554 29.8871C31.3363 29.8872 31.1195 29.9305 30.9172 30.0144C30.7148 30.0983 30.531 30.2213 30.3762 30.3762C30.2215 30.5312 30.0987 30.7151 30.015 30.9175C29.9313 31.1199 29.8882 31.3369 29.8884 31.5559C29.8885 31.7749 29.9317 31.9918 30.0157 32.1941C30.0996 32.3964 30.2225 32.5802 30.3775 32.735L33.6425 36L30.3775 39.265C30.0774 39.5801 29.9123 40.0002 29.9176 40.4353C29.9229 40.8705 30.0982 41.2864 30.4059 41.5941C30.7136 41.9018 31.1295 42.0771 31.5647 42.0824C31.9998 42.0877 32.4199 41.9226 32.735 41.6225L36 38.3575L39.265 41.6225C39.5801 41.9226 40.0002 42.0877 40.4353 42.0824C40.8705 42.0771 41.2864 41.9018 41.5941 41.5941C41.9018 41.2864 42.0771 40.8705 42.0824 40.4353C42.0877 40.0002 41.9226 39.5801 41.6225 39.265L38.3575 36L41.6225 32.735C41.9226 32.4199 42.0877 31.9998 42.0824 31.5647C42.0771 31.1295 41.9018 30.7136 41.5941 30.4059C41.2864 30.0982 40.8705 29.9229 40.4353 29.9176C40.0002 29.9123 39.5801 30.0774 39.265 30.3775L36 33.6425L32.735 30.375Z" fill="white"/>
</svg>
