<svg width="48" height="48" viewBox="0 0 48 48" fill="none" xmlns="http://www.w3.org/2000/svg">
<g clip-path="url(#clip0_550_12)">
<path d="M44.9793 44.1114L44.8465 44.2441C44.0158 45.0748 43.0094 45.4902 41.8273 45.4902C40.6452 45.4902 39.6378 45.0748 38.8051 44.2441L3.02072 9.93185C2.19002 9.10115 1.77518 8.09425 1.77618 6.91113C1.77719 5.72802 2.19203 4.72111 3.02072 3.89042L3.15348 3.75765C3.98418 2.92695 4.99159 2.51161 6.17571 2.51161C7.35983 2.51161 8.36623 2.92696 9.19491 3.75766L44.9793 38.0699C45.81 38.9006 46.2258 39.9075 46.2268 41.0907C46.2278 42.2738 45.812 43.2807 44.9793 44.1114Z" fill="white"/>
<path d="M13.8315 24.7363C13.1545 26.1336 12.8159 27.6679 12.8159 29.3389C12.8159 32.2758 13.8622 34.7904 15.9536 36.8818C18.045 38.973 20.5589 40.0185 23.4956 40.0186C25.3271 40.0186 26.9939 39.6112 28.4966 38.7979L33.1118 43.2227H8.54443C7.36965 43.2227 6.36371 42.8046 5.52783 41.9688C4.69205 41.1329 4.2734 40.1263 4.27197 38.9502V15.5684L13.8315 24.7363ZM24.1616 34.6406C23.9447 34.6651 23.7228 34.6793 23.4956 34.6787C22.0219 34.6751 20.7655 34.1525 19.7261 33.1113C18.6795 32.063 18.1558 30.8055 18.1558 29.3389C18.1558 29.1899 18.1616 29.043 18.1724 28.8984L24.1616 34.6406ZM38.4478 4.77539C39.6225 4.77539 40.629 5.19395 41.4663 6.03125C42.3034 6.86845 42.7206 7.87372 42.7192 9.04688V31.4639L26.1567 15.584C26.2787 15.4849 26.3984 15.3785 26.5142 15.2637C27.3498 14.423 27.7681 13.4128 27.7681 12.2334C27.768 11.0539 27.35 10.0443 26.5142 9.20508C25.6783 8.36582 24.6718 7.94577 23.4956 7.94434C22.3196 7.94295 21.3143 8.36315 20.48 9.20508C20.3171 9.3695 20.1698 9.5406 20.0386 9.71777L14.8843 4.77539H38.4478Z" fill="white"/>
</g>
<defs>
<clipPath id="clip0_550_12">
<rect width="48" height="48" fill="white"/>
</clipPath>
</defs>
</svg>
