<svg width="48" height="48" viewBox="0 0 48 48" fill="none" xmlns="http://www.w3.org/2000/svg">
<path fill-rule="evenodd" clip-rule="evenodd" d="M7.35033 20.6753H36.0939C36.4535 20.6753 36.7832 20.8302 37.053 21.1089L41.6088 25.9401C42.448 26.8382 41.8486 28.3556 40.6497 28.3556H11.9061C11.5465 28.3556 11.2168 28.2008 10.947 27.9221L6.39121 23.0909C5.55198 22.1928 6.15143 20.6753 7.35033 20.6753ZM6.39121 14.2647L10.947 9.43357C11.1868 9.15485 11.5465 9 11.9061 9H40.6197C41.8186 9 42.418 10.5175 41.5788 11.4156L37.053 16.2468C36.8132 16.5255 36.4535 16.6803 36.0939 16.6803H7.35033C6.15143 16.6803 5.55198 15.1628 6.39121 14.2647ZM41.5788 34.7353L37.023 39.5664C36.7533 39.8452 36.4236 40 36.0639 40H7.35033C6.15143 40 5.55198 38.4825 6.39121 37.5844L10.947 32.7532C11.1868 32.4745 11.5465 32.3197 11.9061 32.3197H40.6197C41.8186 32.3197 42.418 33.8372 41.5788 34.7353Z" fill="white"/>
</svg>
