<svg width="48" height="48" viewBox="0 0 48 48" fill="none" xmlns="http://www.w3.org/2000/svg">
<path d="M24 46C19.0771 44.7167 15.0127 41.7921 11.8068 37.2264C8.60083 32.6607 6.99858 27.5919 7 22.02V8.6L24 2L41 8.6V22.02C41 27.5933 39.3978 32.6629 36.1933 37.2286C32.9888 41.7943 28.9243 44.7181 24 46ZM24 38.5C27.2004 37.4755 29.8469 35.4264 31.9395 32.3528C34.0321 29.2793 35.0784 25.8642 35.0784 22.1076V13.306L24 9.11474L12.9216 13.306V22.1076C12.9216 25.8642 13.9679 29.2793 16.0605 32.3528C18.1531 35.4264 20.7996 37.4755 24 38.5Z" fill="white"/>
</svg>
